<mxfile host="app.diagrams.net" agent="Mozilla/5.0 (Windows NT 10.0; Win64; x64) AppleWebKit/537.36 (KHTML, like Gecko) Chrome/139.0.0.0 Safari/537.36" version="28.1.0">
  <diagram name="Page-1" id="oOybknobmFVutCBGKYxa">
    <mxGraphModel dx="1226" dy="628" grid="1" gridSize="10" guides="1" tooltips="1" connect="1" arrows="1" fold="1" page="1" pageScale="1" pageWidth="827" pageHeight="1169" math="0" shadow="0">
      <root>
        <mxCell id="0" />
        <mxCell id="1" parent="0" />
        <mxCell id="Uo_8gufJ4ChpEhREiXwm-1" value="User" style="shape=umlActor;verticalLabelPosition=bottom;verticalAlign=top;html=1;outlineConnect=0;" vertex="1" parent="1">
          <mxGeometry x="54" y="60" width="30" height="60" as="geometry" />
        </mxCell>
        <mxCell id="Uo_8gufJ4ChpEhREiXwm-3" value="Auth" style="rounded=0;whiteSpace=wrap;html=1;" vertex="1" parent="1">
          <mxGeometry x="140" y="65" width="100" height="50" as="geometry" />
        </mxCell>
        <mxCell id="Uo_8gufJ4ChpEhREiXwm-4" value="Database" style="rounded=0;whiteSpace=wrap;html=1;" vertex="1" parent="1">
          <mxGeometry x="300" y="65" width="100" height="50" as="geometry" />
        </mxCell>
        <mxCell id="Uo_8gufJ4ChpEhREiXwm-5" value="Role" style="rounded=0;whiteSpace=wrap;html=1;" vertex="1" parent="1">
          <mxGeometry x="460" y="65" width="100" height="50" as="geometry" />
        </mxCell>
        <mxCell id="Uo_8gufJ4ChpEhREiXwm-6" value="Post" style="rounded=0;whiteSpace=wrap;html=1;" vertex="1" parent="1">
          <mxGeometry x="620" y="65" width="100" height="50" as="geometry" />
        </mxCell>
        <mxCell id="Uo_8gufJ4ChpEhREiXwm-7" value="Call" style="rounded=0;whiteSpace=wrap;html=1;" vertex="1" parent="1">
          <mxGeometry x="780" y="65" width="100" height="50" as="geometry" />
        </mxCell>
        <mxCell id="Uo_8gufJ4ChpEhREiXwm-8" value="" style="endArrow=none;dashed=1;html=1;dashPattern=1 3;strokeWidth=2;rounded=0;" edge="1" parent="1">
          <mxGeometry width="50" height="50" relative="1" as="geometry">
            <mxPoint x="70" y="600" as="sourcePoint" />
            <mxPoint x="70" y="160" as="targetPoint" />
          </mxGeometry>
        </mxCell>
        <mxCell id="Uo_8gufJ4ChpEhREiXwm-11" value="" style="endArrow=none;dashed=1;html=1;dashPattern=1 3;strokeWidth=2;rounded=0;entryX=0.5;entryY=1;entryDx=0;entryDy=0;" edge="1" parent="1" target="Uo_8gufJ4ChpEhREiXwm-3">
          <mxGeometry width="50" height="50" relative="1" as="geometry">
            <mxPoint x="189.57999999999998" y="600" as="sourcePoint" />
            <mxPoint x="190" y="160" as="targetPoint" />
          </mxGeometry>
        </mxCell>
        <mxCell id="Uo_8gufJ4ChpEhREiXwm-12" value="" style="endArrow=none;dashed=1;html=1;dashPattern=1 3;strokeWidth=2;rounded=0;entryX=0.5;entryY=1;entryDx=0;entryDy=0;" edge="1" parent="1" target="Uo_8gufJ4ChpEhREiXwm-4">
          <mxGeometry width="50" height="50" relative="1" as="geometry">
            <mxPoint x="349.58" y="600" as="sourcePoint" />
            <mxPoint x="349.58" y="160" as="targetPoint" />
          </mxGeometry>
        </mxCell>
        <mxCell id="Uo_8gufJ4ChpEhREiXwm-13" value="" style="endArrow=none;dashed=1;html=1;dashPattern=1 3;strokeWidth=2;rounded=0;entryX=0.5;entryY=1;entryDx=0;entryDy=0;" edge="1" parent="1" target="Uo_8gufJ4ChpEhREiXwm-5">
          <mxGeometry width="50" height="50" relative="1" as="geometry">
            <mxPoint x="509.58" y="600" as="sourcePoint" />
            <mxPoint x="509.58" y="160" as="targetPoint" />
          </mxGeometry>
        </mxCell>
        <mxCell id="Uo_8gufJ4ChpEhREiXwm-14" value="" style="endArrow=none;dashed=1;html=1;dashPattern=1 3;strokeWidth=2;rounded=0;entryX=0.5;entryY=1;entryDx=0;entryDy=0;" edge="1" parent="1" target="Uo_8gufJ4ChpEhREiXwm-6">
          <mxGeometry width="50" height="50" relative="1" as="geometry">
            <mxPoint x="669.58" y="600" as="sourcePoint" />
            <mxPoint x="669.58" y="160" as="targetPoint" />
          </mxGeometry>
        </mxCell>
        <mxCell id="Uo_8gufJ4ChpEhREiXwm-18" value="" style="endArrow=classic;html=1;rounded=0;" edge="1" parent="1">
          <mxGeometry width="50" height="50" relative="1" as="geometry">
            <mxPoint x="75" y="200" as="sourcePoint" />
            <mxPoint x="185" y="200" as="targetPoint" />
          </mxGeometry>
        </mxCell>
        <mxCell id="Uo_8gufJ4ChpEhREiXwm-19" value="Input details" style="text;html=1;align=center;verticalAlign=middle;whiteSpace=wrap;rounded=0;" vertex="1" parent="1">
          <mxGeometry x="90" y="170" width="70" height="30" as="geometry" />
        </mxCell>
        <mxCell id="Uo_8gufJ4ChpEhREiXwm-20" value="" style="endArrow=classic;html=1;rounded=0;" edge="1" parent="1">
          <mxGeometry width="50" height="50" relative="1" as="geometry">
            <mxPoint x="193" y="250" as="sourcePoint" />
            <mxPoint x="343" y="250" as="targetPoint" />
          </mxGeometry>
        </mxCell>
        <mxCell id="Uo_8gufJ4ChpEhREiXwm-21" value="Verify User" style="text;html=1;align=center;verticalAlign=middle;whiteSpace=wrap;rounded=0;" vertex="1" parent="1">
          <mxGeometry x="233" y="220" width="70" height="30" as="geometry" />
        </mxCell>
        <mxCell id="Uo_8gufJ4ChpEhREiXwm-22" value="" style="endArrow=classic;html=1;rounded=0;" edge="1" parent="1">
          <mxGeometry width="50" height="50" relative="1" as="geometry">
            <mxPoint x="352" y="300" as="sourcePoint" />
            <mxPoint x="502" y="300" as="targetPoint" />
          </mxGeometry>
        </mxCell>
        <mxCell id="Uo_8gufJ4ChpEhREiXwm-23" value="Return success failure" style="text;html=1;align=center;verticalAlign=middle;whiteSpace=wrap;rounded=0;" vertex="1" parent="1">
          <mxGeometry x="362" y="270" width="130" height="30" as="geometry" />
        </mxCell>
        <mxCell id="Uo_8gufJ4ChpEhREiXwm-24" value="" style="endArrow=classic;html=1;rounded=0;" edge="1" parent="1">
          <mxGeometry width="50" height="50" relative="1" as="geometry">
            <mxPoint x="502" y="370" as="sourcePoint" />
            <mxPoint x="352" y="370" as="targetPoint" />
          </mxGeometry>
        </mxCell>
        <mxCell id="Uo_8gufJ4ChpEhREiXwm-25" value="Get Role" style="text;html=1;align=center;verticalAlign=middle;whiteSpace=wrap;rounded=0;" vertex="1" parent="1">
          <mxGeometry x="362" y="340" width="130" height="30" as="geometry" />
        </mxCell>
        <mxCell id="Uo_8gufJ4ChpEhREiXwm-26" value="" style="endArrow=classic;html=1;rounded=0;" edge="1" parent="1">
          <mxGeometry width="50" height="50" relative="1" as="geometry">
            <mxPoint x="353" y="440" as="sourcePoint" />
            <mxPoint x="663" y="440" as="targetPoint" />
          </mxGeometry>
        </mxCell>
        <mxCell id="Uo_8gufJ4ChpEhREiXwm-27" value="Upload Documents and create post" style="text;html=1;align=center;verticalAlign=middle;whiteSpace=wrap;rounded=0;" vertex="1" parent="1">
          <mxGeometry x="350" y="412" width="280" height="30" as="geometry" />
        </mxCell>
        <mxCell id="Uo_8gufJ4ChpEhREiXwm-28" value="" style="endArrow=none;dashed=1;html=1;dashPattern=1 3;strokeWidth=2;rounded=0;entryX=0.5;entryY=1;entryDx=0;entryDy=0;" edge="1" parent="1">
          <mxGeometry width="50" height="50" relative="1" as="geometry">
            <mxPoint x="829.58" y="597.5" as="sourcePoint" />
            <mxPoint x="830" y="112.5" as="targetPoint" />
          </mxGeometry>
        </mxCell>
        <mxCell id="Uo_8gufJ4ChpEhREiXwm-29" value="" style="endArrow=classic;html=1;rounded=0;" edge="1" parent="1">
          <mxGeometry width="50" height="50" relative="1" as="geometry">
            <mxPoint x="670" y="480" as="sourcePoint" />
            <mxPoint x="830" y="480" as="targetPoint" />
          </mxGeometry>
        </mxCell>
        <mxCell id="Uo_8gufJ4ChpEhREiXwm-30" value="Call to user" style="text;html=1;align=center;verticalAlign=middle;whiteSpace=wrap;rounded=0;" vertex="1" parent="1">
          <mxGeometry x="680" y="447" width="130" height="30" as="geometry" />
        </mxCell>
        <mxCell id="Uo_8gufJ4ChpEhREiXwm-31" value="" style="endArrow=classic;html=1;rounded=0;" edge="1" parent="1">
          <mxGeometry width="50" height="50" relative="1" as="geometry">
            <mxPoint x="830" y="540" as="sourcePoint" />
            <mxPoint x="80" y="540" as="targetPoint" />
          </mxGeometry>
        </mxCell>
        <mxCell id="Uo_8gufJ4ChpEhREiXwm-32" value="Confirm" style="text;html=1;align=center;verticalAlign=middle;whiteSpace=wrap;rounded=0;" vertex="1" parent="1">
          <mxGeometry x="400" y="510" width="60" height="30" as="geometry" />
        </mxCell>
      </root>
    </mxGraphModel>
  </diagram>
</mxfile>
